<mxfile host="www.draw.io" modified="2020-05-20T03:46:14.543Z" agent="5.0 (Macintosh; Intel Mac OS X 10_14_6) AppleWebKit/537.36 (KHTML, like Gecko) Chrome/80.0.3987.149 Safari/537.36" etag="igZLeZByy_Vl_WF-L0V6" version="12.9.13" type="github">
  <diagram id="C5RBs43oDa-KdzZeNtuy" name="Page-1">
    <mxGraphModel dx="1412" dy="851" grid="1" gridSize="10" guides="1" tooltips="1" connect="1" arrows="1" fold="1" page="1" pageScale="1" pageWidth="827" pageHeight="1169" math="0" shadow="0">
      <root>
        <mxCell id="WIyWlLk6GJQsqaUBKTNV-0" />
        <mxCell id="WIyWlLk6GJQsqaUBKTNV-1" parent="WIyWlLk6GJQsqaUBKTNV-0" />
        <mxCell id="hefucLByXUNoLMBl-mjf-15" value="ForkJoinPool" style="swimlane;fontSize=24;fillColor=#dae8fc;strokeColor=#6c8ebf;" parent="WIyWlLk6GJQsqaUBKTNV-1" vertex="1">
          <mxGeometry x="30" y="120" width="340" height="550" as="geometry" />
        </mxCell>
        <mxCell id="hefucLByXUNoLMBl-mjf-43" value="WorkQueue[]" style="swimlane;fontStyle=1;align=center;verticalAlign=top;childLayout=stackLayout;horizontal=1;startSize=26;horizontalStack=0;resizeParent=1;resizeParentMax=0;resizeLast=0;collapsible=1;marginBottom=0;strokeColor=#d79b00;fontSize=20;fillColor=#ffe6cc;" parent="hefucLByXUNoLMBl-mjf-15" vertex="1">
          <mxGeometry x="60" y="196" width="190" height="78" as="geometry" />
        </mxCell>
        <mxCell id="hefucLByXUNoLMBl-mjf-44" value="workQueues[0]" style="text;strokeColor=#d6b656;fillColor=#fff2cc;align=left;verticalAlign=top;spacingLeft=4;spacingRight=4;overflow=hidden;rotatable=0;points=[[0,0.5],[1,0.5]];portConstraint=eastwest;fontSize=16;" parent="hefucLByXUNoLMBl-mjf-43" vertex="1">
          <mxGeometry y="26" width="190" height="26" as="geometry" />
        </mxCell>
        <mxCell id="hefucLByXUNoLMBl-mjf-46" value="workQueues[1]" style="text;strokeColor=#d6b656;fillColor=#fff2cc;align=left;verticalAlign=top;spacingLeft=4;spacingRight=4;overflow=hidden;rotatable=0;points=[[0,0.5],[1,0.5]];portConstraint=eastwest;fontSize=16;" parent="hefucLByXUNoLMBl-mjf-43" vertex="1">
          <mxGeometry y="52" width="190" height="26" as="geometry" />
        </mxCell>
        <mxCell id="hefucLByXUNoLMBl-mjf-20" value="" style="endArrow=classic;html=1;fontSize=24;exitX=1;exitY=0.5;exitDx=0;exitDy=0;entryX=0.013;entryY=0.056;entryDx=0;entryDy=0;entryPerimeter=0;strokeColor=#FF0000;" parent="WIyWlLk6GJQsqaUBKTNV-1" source="hefucLByXUNoLMBl-mjf-44" target="hefucLByXUNoLMBl-mjf-49" edge="1">
          <mxGeometry width="50" height="50" relative="1" as="geometry">
            <mxPoint x="160" y="490" as="sourcePoint" />
            <mxPoint x="450" y="262" as="targetPoint" />
          </mxGeometry>
        </mxCell>
        <mxCell id="hefucLByXUNoLMBl-mjf-62" value="" style="endArrow=classic;html=1;fontSize=20;fontColor=#000000;exitX=0;exitY=0.769;exitDx=0;exitDy=0;exitPerimeter=0;entryX=1.003;entryY=0.076;entryDx=0;entryDy=0;entryPerimeter=0;" parent="WIyWlLk6GJQsqaUBKTNV-1" source="hefucLByXUNoLMBl-mjf-50" target="hefucLByXUNoLMBl-mjf-15" edge="1">
          <mxGeometry width="50" height="50" relative="1" as="geometry">
            <mxPoint x="600" y="400" as="sourcePoint" />
            <mxPoint x="800" y="290" as="targetPoint" />
          </mxGeometry>
        </mxCell>
        <mxCell id="hefucLByXUNoLMBl-mjf-64" value="ForkJoinWorkerThread" style="swimlane;fontSize=20;fillColor=#d5e8d4;strokeColor=#82b366;" parent="WIyWlLk6GJQsqaUBKTNV-1" vertex="1">
          <mxGeometry x="485" y="330" width="275" height="260" as="geometry" />
        </mxCell>
        <mxCell id="hefucLByXUNoLMBl-mjf-65" value="&lt;pre style=&quot;font-family: &amp;#34;menlo&amp;#34; ; font-size: 15px&quot;&gt;pool&lt;/pre&gt;" style="rounded=0;whiteSpace=wrap;html=1;strokeColor=#6c8ebf;fontSize=20;fillColor=#dae8fc;" parent="hefucLByXUNoLMBl-mjf-64" vertex="1">
          <mxGeometry x="17" y="30" width="90" height="40" as="geometry" />
        </mxCell>
        <mxCell id="hefucLByXUNoLMBl-mjf-66" value="WorkQueue workQueue" style="swimlane;fontStyle=1;align=center;verticalAlign=top;childLayout=stackLayout;horizontal=1;startSize=26;horizontalStack=0;resizeParent=1;resizeParentMax=0;resizeLast=0;collapsible=1;marginBottom=0;strokeColor=#d6b656;fontSize=16;fillColor=#fff2cc;" parent="hefucLByXUNoLMBl-mjf-64" vertex="1">
          <mxGeometry x="17" y="80" width="240" height="172" as="geometry" />
        </mxCell>
        <mxCell id="hefucLByXUNoLMBl-mjf-67" value="pool 线程池引用" style="text;strokeColor=#6c8ebf;fillColor=#dae8fc;align=left;verticalAlign=top;spacingLeft=4;spacingRight=4;overflow=hidden;rotatable=0;points=[[0,0.5],[1,0.5]];portConstraint=eastwest;" parent="hefucLByXUNoLMBl-mjf-66" vertex="1">
          <mxGeometry y="26" width="240" height="26" as="geometry" />
        </mxCell>
        <mxCell id="hefucLByXUNoLMBl-mjf-68" value="owner 任务队列所属线程" style="text;strokeColor=#82b366;fillColor=#d5e8d4;align=left;verticalAlign=top;spacingLeft=4;spacingRight=4;overflow=hidden;rotatable=0;points=[[0,0.5],[1,0.5]];portConstraint=eastwest;" parent="hefucLByXUNoLMBl-mjf-66" vertex="1">
          <mxGeometry y="52" width="240" height="26" as="geometry" />
        </mxCell>
        <mxCell id="hefucLByXUNoLMBl-mjf-69" value="" style="text;strokeColor=#000000;fillColor=none;align=left;verticalAlign=top;spacingLeft=4;spacingRight=4;overflow=hidden;rotatable=0;points=[[0,0.5],[1,0.5]];portConstraint=eastwest;" parent="hefucLByXUNoLMBl-mjf-66" vertex="1">
          <mxGeometry y="78" width="240" height="94" as="geometry" />
        </mxCell>
        <mxCell id="hefucLByXUNoLMBl-mjf-74" value="" style="endArrow=classic;html=1;fontSize=20;fontColor=#000000;exitX=1;exitY=0.5;exitDx=0;exitDy=0;entryX=0;entryY=0.099;entryDx=0;entryDy=0;entryPerimeter=0;strokeColor=#FF0000;" parent="WIyWlLk6GJQsqaUBKTNV-1" source="hefucLByXUNoLMBl-mjf-46" target="hefucLByXUNoLMBl-mjf-66" edge="1">
          <mxGeometry width="50" height="50" relative="1" as="geometry">
            <mxPoint x="600" y="400" as="sourcePoint" />
            <mxPoint x="650" y="350" as="targetPoint" />
          </mxGeometry>
        </mxCell>
        <mxCell id="hefucLByXUNoLMBl-mjf-75" value="" style="endArrow=classic;html=1;strokeColor=#000000;fontSize=20;fontColor=#000000;exitX=0;exitY=0.5;exitDx=0;exitDy=0;entryX=1.007;entryY=0.079;entryDx=0;entryDy=0;entryPerimeter=0;" parent="WIyWlLk6GJQsqaUBKTNV-1" source="hefucLByXUNoLMBl-mjf-65" target="hefucLByXUNoLMBl-mjf-15" edge="1">
          <mxGeometry width="50" height="50" relative="1" as="geometry">
            <mxPoint x="600" y="460" as="sourcePoint" />
            <mxPoint x="650" y="410" as="targetPoint" />
          </mxGeometry>
        </mxCell>
        <mxCell id="hefucLByXUNoLMBl-mjf-76" value="" style="endArrow=classic;html=1;strokeColor=#000000;fontSize=20;fontColor=#000000;exitX=0;exitY=0.5;exitDx=0;exitDy=0;entryX=1;entryY=0.083;entryDx=0;entryDy=0;entryPerimeter=0;" parent="WIyWlLk6GJQsqaUBKTNV-1" source="hefucLByXUNoLMBl-mjf-67" target="hefucLByXUNoLMBl-mjf-15" edge="1">
          <mxGeometry width="50" height="50" relative="1" as="geometry">
            <mxPoint x="600" y="460" as="sourcePoint" />
            <mxPoint x="650" y="410" as="targetPoint" />
          </mxGeometry>
        </mxCell>
        <mxCell id="hefucLByXUNoLMBl-mjf-49" value="WorkQueue submissionQueue" style="swimlane;fontStyle=1;align=center;verticalAlign=top;childLayout=stackLayout;horizontal=1;startSize=26;horizontalStack=0;resizeParent=1;resizeParentMax=0;resizeLast=0;collapsible=1;marginBottom=0;fontSize=16;fillColor=#fff2cc;strokeColor=#d6b656;" parent="WIyWlLk6GJQsqaUBKTNV-1" vertex="1">
          <mxGeometry x="490" y="120" width="240" height="190" as="geometry" />
        </mxCell>
        <mxCell id="hefucLByXUNoLMBl-mjf-50" value="pool 线程池引用" style="text;strokeColor=#6c8ebf;fillColor=#dae8fc;align=left;verticalAlign=top;spacingLeft=4;spacingRight=4;overflow=hidden;rotatable=0;points=[[0,0.5],[1,0.5]];portConstraint=eastwest;" parent="hefucLByXUNoLMBl-mjf-49" vertex="1">
          <mxGeometry y="26" width="240" height="26" as="geometry" />
        </mxCell>
        <mxCell id="hefucLByXUNoLMBl-mjf-52" value="owner 为 null" style="text;strokeColor=#82b366;fillColor=#d5e8d4;align=left;verticalAlign=top;spacingLeft=4;spacingRight=4;overflow=hidden;rotatable=0;points=[[0,0.5],[1,0.5]];portConstraint=eastwest;" parent="hefucLByXUNoLMBl-mjf-49" vertex="1">
          <mxGeometry y="52" width="240" height="26" as="geometry" />
        </mxCell>
        <mxCell id="3rfRzYVXKlnVneU_K0MV-4" value="" style="text;align=left;verticalAlign=top;spacingLeft=4;spacingRight=4;overflow=hidden;rotatable=0;points=[[0,0.5],[1,0.5]];portConstraint=eastwest;" vertex="1" parent="hefucLByXUNoLMBl-mjf-49">
          <mxGeometry y="78" width="240" height="112" as="geometry" />
        </mxCell>
        <mxCell id="3rfRzYVXKlnVneU_K0MV-5" value="&lt;font color=&quot;#00994d&quot;&gt;top&lt;/font&gt;" style="endArrow=classic;html=1;entryX=0;entryY=0.5;entryDx=0;entryDy=0;strokeColor=#00994D;" edge="1" parent="WIyWlLk6GJQsqaUBKTNV-1" target="hefucLByXUNoLMBl-mjf-58">
          <mxGeometry width="50" height="50" relative="1" as="geometry">
            <mxPoint x="455" y="565" as="sourcePoint" />
            <mxPoint x="145" y="760" as="targetPoint" />
          </mxGeometry>
        </mxCell>
        <mxCell id="3rfRzYVXKlnVneU_K0MV-6" value="" style="endArrow=classic;html=1;entryX=1;entryY=0.5;entryDx=0;entryDy=0;strokeColor=#FF0000;" edge="1" parent="WIyWlLk6GJQsqaUBKTNV-1" target="hefucLByXUNoLMBl-mjf-58">
          <mxGeometry width="50" height="50" relative="1" as="geometry">
            <mxPoint x="755" y="565" as="sourcePoint" />
            <mxPoint x="145" y="760" as="targetPoint" />
          </mxGeometry>
        </mxCell>
        <mxCell id="3rfRzYVXKlnVneU_K0MV-7" value="&lt;font color=&quot;#ff0000&quot;&gt;base&lt;/font&gt;" style="edgeLabel;html=1;align=center;verticalAlign=middle;resizable=0;points=[];" vertex="1" connectable="0" parent="3rfRzYVXKlnVneU_K0MV-6">
          <mxGeometry x="-0.25" relative="1" as="geometry">
            <mxPoint as="offset" />
          </mxGeometry>
        </mxCell>
        <mxCell id="3rfRzYVXKlnVneU_K0MV-21" value="&lt;font color=&quot;#00994d&quot;&gt;top&lt;/font&gt;" style="endArrow=classic;html=1;entryX=0;entryY=0.5;entryDx=0;entryDy=0;strokeColor=#00994D;" edge="1" parent="WIyWlLk6GJQsqaUBKTNV-1" target="3rfRzYVXKlnVneU_K0MV-27">
          <mxGeometry width="50" height="50" relative="1" as="geometry">
            <mxPoint x="450" y="285" as="sourcePoint" />
            <mxPoint x="140" y="480" as="targetPoint" />
          </mxGeometry>
        </mxCell>
        <mxCell id="3rfRzYVXKlnVneU_K0MV-22" value="" style="endArrow=classic;html=1;entryX=1;entryY=0.5;entryDx=0;entryDy=0;strokeColor=#FF0000;" edge="1" parent="WIyWlLk6GJQsqaUBKTNV-1" target="3rfRzYVXKlnVneU_K0MV-27">
          <mxGeometry width="50" height="50" relative="1" as="geometry">
            <mxPoint x="750" y="285" as="sourcePoint" />
            <mxPoint x="140" y="480" as="targetPoint" />
          </mxGeometry>
        </mxCell>
        <mxCell id="3rfRzYVXKlnVneU_K0MV-23" value="&lt;font color=&quot;#ff0000&quot;&gt;base&lt;/font&gt;" style="edgeLabel;html=1;align=center;verticalAlign=middle;resizable=0;points=[];" vertex="1" connectable="0" parent="3rfRzYVXKlnVneU_K0MV-22">
          <mxGeometry x="-0.25" relative="1" as="geometry">
            <mxPoint as="offset" />
          </mxGeometry>
        </mxCell>
        <mxCell id="3rfRzYVXKlnVneU_K0MV-24" value="ForkJoinTask[]" style="swimlane;fontStyle=1;align=center;verticalAlign=top;childLayout=stackLayout;horizontal=1;startSize=26;horizontalStack=0;resizeParent=1;resizeParentMax=0;resizeLast=0;collapsible=1;marginBottom=0;strokeColor=#b85450;fontSize=15;fillColor=#f8cecc;direction=east;" vertex="1" parent="WIyWlLk6GJQsqaUBKTNV-1">
          <mxGeometry x="500" y="210" width="200" height="90" as="geometry" />
        </mxCell>
        <mxCell id="3rfRzYVXKlnVneU_K0MV-25" value="array[4096]" style="text;strokeColor=none;fillColor=none;align=left;verticalAlign=top;spacingLeft=4;spacingRight=4;overflow=hidden;rotatable=0;points=[[0,0.5],[1,0.5]];portConstraint=eastwest;fontSize=16;" vertex="1" parent="3rfRzYVXKlnVneU_K0MV-24">
          <mxGeometry y="26" width="200" height="26" as="geometry" />
        </mxCell>
        <mxCell id="3rfRzYVXKlnVneU_K0MV-26" value="" style="line;strokeWidth=1;fillColor=none;align=left;verticalAlign=middle;spacingTop=-1;spacingLeft=3;spacingRight=3;rotatable=0;labelPosition=right;points=[];portConstraint=eastwest;" vertex="1" parent="3rfRzYVXKlnVneU_K0MV-24">
          <mxGeometry y="52" width="200" height="8" as="geometry" />
        </mxCell>
        <mxCell id="3rfRzYVXKlnVneU_K0MV-27" value="array[4097]" style="text;strokeColor=none;fillColor=none;align=left;verticalAlign=top;spacingLeft=4;spacingRight=4;overflow=hidden;rotatable=0;points=[[0,0.5],[1,0.5]];portConstraint=eastwest;fontSize=16;" vertex="1" parent="3rfRzYVXKlnVneU_K0MV-24">
          <mxGeometry y="60" width="200" height="30" as="geometry" />
        </mxCell>
        <mxCell id="hefucLByXUNoLMBl-mjf-55" value="ForkJoinTask[]" style="swimlane;fontStyle=1;align=center;verticalAlign=top;childLayout=stackLayout;horizontal=1;startSize=26;horizontalStack=0;resizeParent=1;resizeParentMax=0;resizeLast=0;collapsible=1;marginBottom=0;strokeColor=#b85450;fontSize=15;fillColor=#f8cecc;direction=east;" parent="WIyWlLk6GJQsqaUBKTNV-1" vertex="1">
          <mxGeometry x="505" y="490" width="200" height="90" as="geometry" />
        </mxCell>
        <mxCell id="hefucLByXUNoLMBl-mjf-56" value="array[4096]" style="text;strokeColor=none;fillColor=none;align=left;verticalAlign=top;spacingLeft=4;spacingRight=4;overflow=hidden;rotatable=0;points=[[0,0.5],[1,0.5]];portConstraint=eastwest;fontSize=16;" parent="hefucLByXUNoLMBl-mjf-55" vertex="1">
          <mxGeometry y="26" width="200" height="26" as="geometry" />
        </mxCell>
        <mxCell id="hefucLByXUNoLMBl-mjf-57" value="" style="line;strokeWidth=1;fillColor=none;align=left;verticalAlign=middle;spacingTop=-1;spacingLeft=3;spacingRight=3;rotatable=0;labelPosition=right;points=[];portConstraint=eastwest;" parent="hefucLByXUNoLMBl-mjf-55" vertex="1">
          <mxGeometry y="52" width="200" height="8" as="geometry" />
        </mxCell>
        <mxCell id="hefucLByXUNoLMBl-mjf-58" value="array[4097]" style="text;strokeColor=none;fillColor=none;align=left;verticalAlign=top;spacingLeft=4;spacingRight=4;overflow=hidden;rotatable=0;points=[[0,0.5],[1,0.5]];portConstraint=eastwest;fontSize=16;" parent="hefucLByXUNoLMBl-mjf-55" vertex="1">
          <mxGeometry y="60" width="200" height="30" as="geometry" />
        </mxCell>
      </root>
    </mxGraphModel>
  </diagram>
</mxfile>
